# ProBuilder 4.2.3
# https://unity3d.com/unity/features/worldbuilding/probuilder
# 9/8/2021 5:29:55 PM

mtllib ./Cylinder.mtl
o Cylinder

g Cylinder
v 0 0 0
v 0 0.075 0
v 0.01283264 0 0.1957893
v 0.01283264 0.075 0.1957893
v 0.05111122 0 0.3882286
v 0.05111122 0.075 0.3882286
v 0.1141808 0 0.5740252
v 0.1141808 0.075 0.5740252
v 0.2009619 0 0.75
v 0.2009619 0.075 0.75
v 0.30997 0 0.9131421
v 0.30997 0.075 0.9131421
v 0.4393399 0 1.06066
v 0.4393399 0.075 1.06066
v 0.5868579 0 1.19003
v 0.5868579 0.075 1.19003
v 0.7500001 0 1.299038
v 0.7500001 0.075 1.299038
v 0.9259748 0 1.385819
v 0.9259748 0.075 1.385819
v 1.111771 0 1.448889
v 1.111771 0.075 1.448889
v 1.304211 0 1.487167
v 1.304211 0.075 1.487167
v 1.5 0 1.5
v 1.5 0.075 1.5
v 1.695789 0 1.487167
v 1.695789 0.075 1.487167
v 1.888229 0 1.448889
v 1.888229 0.075 1.448889
v 2.074025 0 1.385819
v 2.074025 0.075 1.385819
v 2.25 0 1.299038
v 2.25 0.075 1.299038
v 2.413142 0 1.19003
v 2.413142 0.075 1.19003
v 2.56066 0 1.06066
v 2.56066 0.075 1.06066
v 2.69003 0 0.9131421
v 2.69003 0.075 0.9131421
v 2.799038 0 0.7500001
v 2.799038 0.075 0.7500001
v 2.885819 0 0.5740252
v 2.885819 0.075 0.5740252
v 2.948889 0 0.3882287
v 2.948889 0.075 0.3882287
v 2.987167 0 0.1957895
v 2.987167 0.075 0.1957895
v 3 0 -1.311342E-07
v 3 0.075 -1.311342E-07
v 2.987167 0 -0.1957894
v 2.987167 0.075 -0.1957894
v 2.948889 0 -0.3882286
v 2.948889 0.075 -0.3882286
v 2.885819 0 -0.5740252
v 2.885819 0.075 -0.5740252
v 2.799038 0 -0.7499999
v 2.799038 0.075 -0.7499999
v 2.69003 0 -0.9131421
v 2.69003 0.075 -0.9131421
v 2.56066 0 -1.06066
v 2.56066 0.075 -1.06066
v 2.413142 0 -1.19003
v 2.413142 0.075 -1.19003
v 2.25 0 -1.299038
v 2.25 0.075 -1.299038
v 2.074025 0 -1.385819
v 2.074025 0.075 -1.385819
v 1.888228 0 -1.448889
v 1.888228 0.075 -1.448889
v 1.69579 0 -1.487167
v 1.69579 0.075 -1.487167
v 1.5 0 -1.5
v 1.5 0.075 -1.5
v 1.304211 0 -1.487167
v 1.304211 0.075 -1.487167
v 1.111771 0 -1.448889
v 1.111771 0.075 -1.448889
v 0.9259746 0 -1.385819
v 0.9259746 0.075 -1.385819
v 0.7500001 0 -1.299038
v 0.7500001 0.075 -1.299038
v 0.5868577 0 -1.19003
v 0.5868577 0.075 -1.19003
v 0.43934 0 -1.06066
v 0.43934 0.075 -1.06066
v 0.3099699 0 -0.9131421
v 0.3099699 0.075 -0.9131421
v 0.2009621 0 -0.7500002
v 0.2009621 0.075 -0.7500002
v 0.1141807 0 -0.5740252
v 0.1141807 0.075 -0.5740252
v 0.05111134 0 -0.3882289
v 0.05111134 0.075 -0.3882289
v 0.01283264 0 -0.1957893
v 0.01283264 0.075 -0.1957893
v 0 0.15 0
v 0.01283264 0.15 0.1957893
v 0.05111122 0.15 0.3882286
v 0.1141808 0.15 0.5740252
v 0.2009619 0.15 0.75
v 0.30997 0.15 0.9131421
v 0.4393399 0.15 1.06066
v 0.5868579 0.15 1.19003
v 0.7500001 0.15 1.299038
v 0.9259748 0.15 1.385819
v 1.111771 0.15 1.448889
v 1.304211 0.15 1.487167
v 1.5 0.15 1.5
v 1.695789 0.15 1.487167
v 1.888229 0.15 1.448889
v 2.074025 0.15 1.385819
v 2.25 0.15 1.299038
v 2.413142 0.15 1.19003
v 2.56066 0.15 1.06066
v 2.69003 0.15 0.9131421
v 2.799038 0.15 0.7500001
v 2.885819 0.15 0.5740252
v 2.948889 0.15 0.3882287
v 2.987167 0.15 0.1957895
v 3 0.15 -1.311342E-07
v 2.987167 0.15 -0.1957894
v 2.948889 0.15 -0.3882286
v 2.885819 0.15 -0.5740252
v 2.799038 0.15 -0.7499999
v 2.69003 0.15 -0.9131421
v 2.56066 0.15 -1.06066
v 2.413142 0.15 -1.19003
v 2.25 0.15 -1.299038
v 2.074025 0.15 -1.385819
v 1.888228 0.15 -1.448889
v 1.69579 0.15 -1.487167
v 1.5 0.15 -1.5
v 1.304211 0.15 -1.487167
v 1.111771 0.15 -1.448889
v 0.9259746 0.15 -1.385819
v 0.7500001 0.15 -1.299038
v 0.5868577 0.15 -1.19003
v 0.43934 0.15 -1.06066
v 0.3099699 0.15 -0.9131421
v 0.2009621 0.15 -0.7500002
v 0.1141807 0.15 -0.5740252
v 0.05111134 0.15 -0.3882289
v 0.01283264 0.15 -0.1957893
v 1.5 0 0
v 1.5 0.15 0

vt 0 0
vt 0 0.075
vt 0.1962094 0
vt 0.1962094 0.075
vt 0.1945308 0
vt 0.1945308 0.075
vt 0.3907402 0
vt 0.3907402 0.075
vt 0.3840545 0
vt 0.3840545 0.075
vt 0.5802639 0
vt 0.5802639 0.075
vt 0.5653285 0
vt 0.5653285 0.075
vt 0.7615378 0
vt 0.7615378 0.075
vt 0.7352507 0
vt 0.7352507 0.075
vt 0.9314601 0
vt 0.9314601 0.075
vt 0.890914 0
vt 0.890914 0.075
vt 1.087123 0
vt 1.087123 0.075
vt 1.029655 0
vt 1.029655 0.075
vt 1.225865 0
vt 1.225865 0.075
vt 1.1491 0
vt 1.1491 0.075
vt 1.345309 0
vt 1.345309 0.075
vt 1.247204 0
vt 1.247204 0.075
vt 1.443413 0
vt 1.443413 0.075
vt 1.322291 0
vt 1.322291 0.075
vt 1.518501 0
vt 1.518501 0.075
vt 1.373073 0
vt 1.373073 0.075
vt 1.569282 0
vt 1.569282 0.075
vt 1.398684 0
vt 1.398684 0.075
vt 1.594894 0
vt 1.594894 0.075
vt 1.5185 0
vt 1.5185 0.075
vt -0.1962083 0
vt -0.1962083 0.075
vt -0.3907407 0
vt -0.3907407 0.075
vt -0.1945314 0
vt -0.1945314 0.075
vt -0.580266 0
vt -0.580266 0.075
vt -0.3840566 0
vt -0.3840566 0.075
vt -0.761539 0
vt -0.761539 0.075
vt -0.5653297 0
vt -0.5653297 0.075
vt -0.9314571 0
vt -0.9314571 0.075
vt -0.7352479 0
vt -0.7352479 0.075
vt -1.087122 0
vt -1.087122 0.075
vt -0.8909131 0
vt -0.8909131 0.075
vt -1.225867 0
vt -1.225867 0.075
vt -1.029657 0
vt -1.029657 0.075
vt -1.345307 0
vt -1.345307 0.075
vt -1.149098 0
vt -1.149098 0.075
vt -1.443414 0
vt -1.443414 0.075
vt -1.247205 0
vt -1.247205 0.075
vt -1.5185 0
vt -1.5185 0.075
vt -1.32229 0
vt -1.32229 0.075
vt -1.569283 0
vt -1.569283 0.075
vt -1.373074 0
vt -1.373074 0.075
vt -1.594893 0
vt -1.594893 0.075
vt -1.398683 0
vt -1.398683 0.075
vt 0 0.15
vt 0.1962094 0.15
vt 0.1945308 0.15
vt 0.3907402 0.15
vt 0.3840545 0.15
vt 0.5802639 0.15
vt 0.5653285 0.15
vt 0.7615378 0.15
vt 0.7352507 0.15
vt 0.9314601 0.15
vt 0.890914 0.15
vt 1.087123 0.15
vt 1.029655 0.15
vt 1.225865 0.15
vt 1.1491 0.15
vt 1.345309 0.15
vt 1.247204 0.15
vt 1.443413 0.15
vt 1.322291 0.15
vt 1.518501 0.15
vt 1.373073 0.15
vt 1.569282 0.15
vt 1.398684 0.15
vt 1.594894 0.15
vt 1.5185 0.15
vt -0.1962083 0.15
vt -0.3907407 0.15
vt -0.1945314 0.15
vt -0.580266 0.15
vt -0.3840566 0.15
vt -0.761539 0.15
vt -0.5653297 0.15
vt -0.9314571 0.15
vt -0.7352479 0.15
vt -1.087122 0.15
vt -0.8909131 0.15
vt -1.225867 0.15
vt -1.029657 0.15
vt -1.345307 0.15
vt -1.149098 0.15
vt -1.443414 0.15
vt -1.247205 0.15
vt -1.5185 0.15
vt -1.32229 0.15
vt -1.569283 0.15
vt -1.373074 0.15
vt -1.594893 0.15
vt -1.398683 0.15
vt 1.5 0
vt 0.01283264 0.1957893
vt -1.5 0
vt -0.01283264 0.1957893
vt 0.05111122 0.3882286
vt -0.05111122 0.3882286
vt 0.1141808 0.5740252
vt -0.1141808 0.5740252
vt 0.2009619 0.75
vt -0.2009619 0.75
vt 0.30997 0.9131421
vt -0.30997 0.9131421
vt 0.4393399 1.06066
vt -0.4393399 1.06066
vt 0.5868579 1.19003
vt -0.5868579 1.19003
vt 0.7500001 1.299038
vt -0.7500001 1.299038
vt 0.9259748 1.385819
vt -0.9259748 1.385819
vt 1.111771 1.448889
vt -1.111771 1.448889
vt 1.304211 1.487167
vt -1.304211 1.487167
vt 1.5 1.5
vt -1.5 1.5
vt 1.695789 1.487167
vt -1.695789 1.487167
vt 1.888229 1.448889
vt -1.888229 1.448889
vt 2.074025 1.385819
vt -2.074025 1.385819
vt 2.25 1.299038
vt -2.25 1.299038
vt 2.413142 1.19003
vt -2.413142 1.19003
vt 2.56066 1.06066
vt -2.56066 1.06066
vt 2.69003 0.9131421
vt -2.69003 0.9131421
vt 2.799038 0.7500001
vt -2.799038 0.7500001
vt 2.885819 0.5740252
vt -2.885819 0.5740252
vt 2.948889 0.3882287
vt -2.948889 0.3882287
vt 2.987167 0.1957895
vt -2.987167 0.1957895
vt 3 -1.311342E-07
vt -3 -1.311342E-07
vt 2.987167 -0.1957894
vt -2.987167 -0.1957894
vt 2.948889 -0.3882286
vt -2.948889 -0.3882286
vt 2.885819 -0.5740252
vt -2.885819 -0.5740252
vt 2.799038 -0.7499999
vt -2.799038 -0.7499999
vt 2.69003 -0.9131421
vt -2.69003 -0.9131421
vt 2.56066 -1.06066
vt -2.56066 -1.06066
vt 2.413142 -1.19003
vt -2.413142 -1.19003
vt 2.25 -1.299038
vt -2.25 -1.299038
vt 2.074025 -1.385819
vt -2.074025 -1.385819
vt 1.888228 -1.448889
vt -1.888228 -1.448889
vt 1.69579 -1.487167
vt -1.69579 -1.487167
vt 1.5 -1.5
vt -1.5 -1.5
vt 1.304211 -1.487167
vt -1.304211 -1.487167
vt 1.111771 -1.448889
vt -1.111771 -1.448889
vt 0.9259746 -1.385819
vt -0.9259746 -1.385819
vt 0.7500001 -1.299038
vt -0.7500001 -1.299038
vt 0.5868577 -1.19003
vt -0.5868577 -1.19003
vt 0.43934 -1.06066
vt -0.43934 -1.06066
vt 0.3099699 -0.9131421
vt -0.3099699 -0.9131421
vt 0.2009621 -0.7500002
vt -0.2009621 -0.7500002
vt 0.1141807 -0.5740252
vt -0.1141807 -0.5740252
vt 0.05111134 -0.3882289
vt -0.05111134 -0.3882289
vt 0.01283264 -0.1957893
vt -0.01283264 -0.1957893

vn -1 0 7.466567E-09
vn -0.9914449 0 0.1305261
vn -0.9659257 0 0.2588195
vn -0.9238794 0 0.3826836
vn -0.8660255 0 0.4999999
vn -0.7933533 0 0.6087615
vn -0.7071068 0 0.7071068
vn -0.6087616 0 0.7933532
vn -0.4999999 0 0.8660255
vn -0.3826835 0 0.9238795
vn -0.2588192 0 0.9659258
vn -0.1305261 0 0.9914449
vn -2.650631E-07 0 1
vn 0.1305261 0 0.9914449
vn 0.2588192 0 0.9659258
vn 0.3826836 0 0.9238795
vn 0.5000001 0 0.8660253
vn 0.6087615 0 0.7933533
vn 0.7071067 0 0.7071069
vn 0.7933534 0 0.6087614
vn 0.8660256 0 0.4999997
vn 0.9238794 0 0.3826839
vn 0.9659257 0 0.2588196
vn 0.9914449 0 0.1305261
vn 1 0 -5.599925E-08
vn 0.9914449 0 -0.1305261
vn 0.9659257 0 -0.2588195
vn 0.9238793 0 -0.382684
vn 0.8660256 0 -0.4999997
vn 0.7933538 0 -0.6087608
vn 0.7071066 0 -0.7071069
vn 0.6087614 0 -0.7933534
vn 0.5000002 0 -0.8660253
vn 0.3826834 0 -0.9238796
vn 0.258819 0 -0.9659258
vn 0.1305263 0 -0.9914449
vn 1.829309E-07 0 -1
vn -0.130526 0 -0.9914449
vn -0.258819 0 -0.9659258
vn -0.3826836 0 -0.9238795
vn -0.5000001 0 -0.8660253
vn -0.6087614 0 -0.7933534
vn -0.7071067 0 -0.7071069
vn -0.7933534 0 -0.6087614
vn -0.8660253 0 -0.5000001
vn -0.9238794 0 -0.3826837
vn -0.9659258 0 -0.2588193
vn -0.9914449 0 -0.1305262
vn 0 -1 0
vn 0 1 0

usemtl CylinderMat
f 1/1/49 145/145/49 3/146/49
f 3/146/49 145/145/49 5/149/49
f 5/149/49 145/145/49 7/151/49
f 7/151/49 145/145/49 9/153/49
f 9/153/49 145/145/49 11/155/49
f 11/155/49 145/145/49 13/157/49
f 13/157/49 145/145/49 15/159/49
f 15/159/49 145/145/49 17/161/49
f 17/161/49 145/145/49 19/163/49
f 19/163/49 145/145/49 21/165/49
f 21/165/49 145/145/49 23/167/49
f 23/167/49 145/145/49 25/169/49
f 25/169/49 145/145/49 27/171/49
f 27/171/49 145/145/49 29/173/49
f 29/173/49 145/145/49 31/175/49
f 31/175/49 145/145/49 33/177/49
f 33/177/49 145/145/49 35/179/49
f 35/179/49 145/145/49 37/181/49
f 37/181/49 145/145/49 39/183/49
f 39/183/49 145/145/49 41/185/49
f 41/185/49 145/145/49 43/187/49
f 43/187/49 145/145/49 45/189/49
f 45/189/49 145/145/49 47/191/49
f 47/191/49 145/145/49 49/193/49
f 49/193/49 145/145/49 51/195/49
f 51/195/49 145/145/49 53/197/49
f 53/197/49 145/145/49 55/199/49
f 55/199/49 145/145/49 57/201/49
f 57/201/49 145/145/49 59/203/49
f 59/203/49 145/145/49 61/205/49
f 61/205/49 145/145/49 63/207/49
f 63/207/49 145/145/49 65/209/49
f 65/209/49 145/145/49 67/211/49
f 67/211/49 145/145/49 69/213/49
f 69/213/49 145/145/49 71/215/49
f 71/215/49 145/145/49 73/217/49
f 73/217/49 145/145/49 75/219/49
f 75/219/49 145/145/49 77/221/49
f 77/221/49 145/145/49 79/223/49
f 79/223/49 145/145/49 81/225/49
f 81/225/49 145/145/49 83/227/49
f 83/227/49 145/145/49 85/229/49
f 85/229/49 145/145/49 87/231/49
f 87/231/49 145/145/49 89/233/49
f 89/233/49 145/145/49 91/235/49
f 91/235/49 145/145/49 93/237/49
f 93/237/49 145/145/49 95/239/49
f 95/239/49 145/145/49 1/1/49
f 98/148/50 146/147/50 97/1/50
f 99/150/50 146/147/50 98/148/50
f 100/152/50 146/147/50 99/150/50
f 101/154/50 146/147/50 100/152/50
f 102/156/50 146/147/50 101/154/50
f 103/158/50 146/147/50 102/156/50
f 104/160/50 146/147/50 103/158/50
f 105/162/50 146/147/50 104/160/50
f 106/164/50 146/147/50 105/162/50
f 107/166/50 146/147/50 106/164/50
f 108/168/50 146/147/50 107/166/50
f 109/170/50 146/147/50 108/168/50
f 110/172/50 146/147/50 109/170/50
f 111/174/50 146/147/50 110/172/50
f 112/176/50 146/147/50 111/174/50
f 113/178/50 146/147/50 112/176/50
f 114/180/50 146/147/50 113/178/50
f 115/182/50 146/147/50 114/180/50
f 116/184/50 146/147/50 115/182/50
f 117/186/50 146/147/50 116/184/50
f 118/188/50 146/147/50 117/186/50
f 119/190/50 146/147/50 118/188/50
f 120/192/50 146/147/50 119/190/50
f 121/194/50 146/147/50 120/192/50
f 122/196/50 146/147/50 121/194/50
f 123/198/50 146/147/50 122/196/50
f 124/200/50 146/147/50 123/198/50
f 125/202/50 146/147/50 124/200/50
f 126/204/50 146/147/50 125/202/50
f 127/206/50 146/147/50 126/204/50
f 128/208/50 146/147/50 127/206/50
f 129/210/50 146/147/50 128/208/50
f 130/212/50 146/147/50 129/210/50
f 131/214/50 146/147/50 130/212/50
f 132/216/50 146/147/50 131/214/50
f 133/218/50 146/147/50 132/216/50
f 134/220/50 146/147/50 133/218/50
f 135/222/50 146/147/50 134/220/50
f 136/224/50 146/147/50 135/222/50
f 137/226/50 146/147/50 136/224/50
f 138/228/50 146/147/50 137/226/50
f 139/230/50 146/147/50 138/228/50
f 140/232/50 146/147/50 139/230/50
f 141/234/50 146/147/50 140/232/50
f 142/236/50 146/147/50 141/234/50
f 143/238/50 146/147/50 142/236/50
f 144/240/50 146/147/50 143/238/50
f 97/1/50 146/147/50 144/240/50
f 4/4/2 2/2/1 1/1/1
f 1/1/1 3/3/2 4/4/2
f 6/8/3 4/6/2 3/5/2
f 3/5/2 5/7/3 6/8/3
f 8/12/4 6/10/3 5/9/3
f 5/9/3 7/11/4 8/12/4
f 10/16/5 8/14/4 7/13/4
f 7/13/4 9/15/5 10/16/5
f 12/20/6 10/18/5 9/17/5
f 9/17/5 11/19/6 12/20/6
f 14/24/7 12/22/6 11/21/6
f 11/21/6 13/23/7 14/24/7
f 16/28/8 14/26/7 13/25/7
f 13/25/7 15/27/8 16/28/8
f 18/32/9 16/30/8 15/29/8
f 15/29/8 17/31/9 18/32/9
f 20/36/10 18/34/9 17/33/9
f 17/33/9 19/35/10 20/36/10
f 22/40/11 20/38/10 19/37/10
f 19/37/10 21/39/11 22/40/11
f 24/44/12 22/42/11 21/41/11
f 21/41/11 23/43/12 24/44/12
f 26/48/13 24/46/12 23/45/12
f 23/45/12 25/47/13 26/48/13
f 28/48/14 26/46/13 25/45/13
f 25/45/13 27/47/14 28/48/14
f 30/44/15 28/42/14 27/41/14
f 27/41/14 29/43/15 30/44/15
f 32/50/16 30/38/15 29/37/15
f 29/37/15 31/49/16 32/50/16
f 34/36/17 32/34/16 31/33/16
f 31/33/16 33/35/17 34/36/17
f 36/32/18 34/30/17 33/29/17
f 33/29/17 35/31/18 36/32/18
f 38/28/19 36/26/18 35/25/18
f 35/25/18 37/27/19 38/28/19
f 40/24/20 38/22/19 37/21/19
f 37/21/19 39/23/20 40/24/20
f 42/20/21 40/18/20 39/17/20
f 39/17/20 41/19/21 42/20/21
f 44/16/22 42/14/21 41/13/21
f 41/13/21 43/15/22 44/16/22
f 46/12/23 44/10/22 43/9/22
f 43/9/22 45/11/23 46/12/23
f 48/8/24 46/6/23 45/5/23
f 45/5/23 47/7/24 48/8/24
f 50/4/25 48/2/24 47/1/24
f 47/1/24 49/3/25 50/4/25
f 52/2/26 50/52/25 49/51/25
f 49/51/25 51/1/26 52/2/26
f 54/56/27 52/54/26 51/53/26
f 51/53/26 53/55/27 54/56/27
f 56/60/28 54/58/27 53/57/27
f 53/57/27 55/59/28 56/60/28
f 58/64/29 56/62/28 55/61/28
f 55/61/28 57/63/29 58/64/29
f 60/68/30 58/66/29 57/65/29
f 57/65/29 59/67/30 60/68/30
f 62/72/31 60/70/30 59/69/30
f 59/69/30 61/71/31 62/72/31
f 64/76/32 62/74/31 61/73/31
f 61/73/31 63/75/32 64/76/32
f 66/80/33 64/78/32 63/77/32
f 63/77/32 65/79/33 66/80/33
f 68/84/34 66/82/33 65/81/33
f 65/81/33 67/83/34 68/84/34
f 70/88/35 68/86/34 67/85/34
f 67/85/34 69/87/35 70/88/35
f 72/92/36 70/90/35 69/89/35
f 69/89/35 71/91/36 72/92/36
f 74/96/37 72/94/36 71/93/36
f 71/93/36 73/95/37 74/96/37
f 76/96/38 74/94/37 73/93/37
f 73/93/37 75/95/38 76/96/38
f 78/92/39 76/90/38 75/89/38
f 75/89/38 77/91/39 78/92/39
f 80/88/40 78/86/39 77/85/39
f 77/85/39 79/87/40 80/88/40
f 82/84/41 80/82/40 79/81/40
f 79/81/40 81/83/41 82/84/41
f 84/80/42 82/78/41 81/77/41
f 81/77/41 83/79/42 84/80/42
f 86/76/43 84/74/42 83/73/42
f 83/73/42 85/75/43 86/76/43
f 88/72/44 86/70/43 85/69/43
f 85/69/43 87/71/44 88/72/44
f 90/68/45 88/66/44 87/65/44
f 87/65/44 89/67/45 90/68/45
f 92/64/46 90/62/45 89/61/45
f 89/61/45 91/63/46 92/64/46
f 94/60/47 92/58/46 91/57/46
f 91/57/46 93/59/47 94/60/47
f 96/56/48 94/54/47 93/53/47
f 93/53/47 95/55/48 96/56/48
f 2/2/1 96/52/48 95/51/48
f 95/51/48 1/1/1 2/2/1
f 98/98/2 97/97/1 2/2/1
f 2/2/1 4/4/2 98/98/2
f 99/100/3 98/99/2 4/6/2
f 4/6/2 6/8/3 99/100/3
f 100/102/4 99/101/3 6/10/3
f 6/10/3 8/12/4 100/102/4
f 101/104/5 100/103/4 8/14/4
f 8/14/4 10/16/5 101/104/5
f 102/106/6 101/105/5 10/18/5
f 10/18/5 12/20/6 102/106/6
f 103/108/7 102/107/6 12/22/6
f 12/22/6 14/24/7 103/108/7
f 104/110/8 103/109/7 14/26/7
f 14/26/7 16/28/8 104/110/8
f 105/112/9 104/111/8 16/30/8
f 16/30/8 18/32/9 105/112/9
f 106/114/10 105/113/9 18/34/9
f 18/34/9 20/36/10 106/114/10
f 107/116/11 106/115/10 20/38/10
f 20/38/10 22/40/11 107/116/11
f 108/118/12 107/117/11 22/42/11
f 22/42/11 24/44/12 108/118/12
f 109/120/13 108/119/12 24/46/12
f 24/46/12 26/48/13 109/120/13
f 110/120/14 109/119/13 26/46/13
f 26/46/13 28/48/14 110/120/14
f 111/118/15 110/117/14 28/42/14
f 28/42/14 30/44/15 111/118/15
f 112/121/16 111/115/15 30/38/15
f 30/38/15 32/50/16 112/121/16
f 113/114/17 112/113/16 32/34/16
f 32/34/16 34/36/17 113/114/17
f 114/112/18 113/111/17 34/30/17
f 34/30/17 36/32/18 114/112/18
f 115/110/19 114/109/18 36/26/18
f 36/26/18 38/28/19 115/110/19
f 116/108/20 115/107/19 38/22/19
f 38/22/19 40/24/20 116/108/20
f 117/106/21 116/105/20 40/18/20
f 40/18/20 42/20/21 117/106/21
f 118/104/22 117/103/21 42/14/21
f 42/14/21 44/16/22 118/104/22
f 119/102/23 118/101/22 44/10/22
f 44/10/22 46/12/23 119/102/23
f 120/100/24 119/99/23 46/6/23
f 46/6/23 48/8/24 120/100/24
f 121/98/25 120/97/24 48/2/24
f 48/2/24 50/4/25 121/98/25
f 122/97/26 121/122/25 50/52/25
f 50/52/25 52/2/26 122/97/26
f 123/124/27 122/123/26 52/54/26
f 52/54/26 54/56/27 123/124/27
f 124/126/28 123/125/27 54/58/27
f 54/58/27 56/60/28 124/126/28
f 125/128/29 124/127/28 56/62/28
f 56/62/28 58/64/29 125/128/29
f 126/130/30 125/129/29 58/66/29
f 58/66/29 60/68/30 126/130/30
f 127/132/31 126/131/30 60/70/30
f 60/70/30 62/72/31 127/132/31
f 128/134/32 127/133/31 62/74/31
f 62/74/31 64/76/32 128/134/32
f 129/136/33 128/135/32 64/78/32
f 64/78/32 66/80/33 129/136/33
f 130/138/34 129/137/33 66/82/33
f 66/82/33 68/84/34 130/138/34
f 131/140/35 130/139/34 68/86/34
f 68/86/34 70/88/35 131/140/35
f 132/142/36 131/141/35 70/90/35
f 70/90/35 72/92/36 132/142/36
f 133/144/37 132/143/36 72/94/36
f 72/94/36 74/96/37 133/144/37
f 134/144/38 133/143/37 74/94/37
f 74/94/37 76/96/38 134/144/38
f 135/142/39 134/141/38 76/90/38
f 76/90/38 78/92/39 135/142/39
f 136/140/40 135/139/39 78/86/39
f 78/86/39 80/88/40 136/140/40
f 137/138/41 136/137/40 80/82/40
f 80/82/40 82/84/41 137/138/41
f 138/136/42 137/135/41 82/78/41
f 82/78/41 84/80/42 138/136/42
f 139/134/43 138/133/42 84/74/42
f 84/74/42 86/76/43 139/134/43
f 140/132/44 139/131/43 86/70/43
f 86/70/43 88/72/44 140/132/44
f 141/130/45 140/129/44 88/66/44
f 88/66/44 90/68/45 141/130/45
f 142/128/46 141/127/45 90/62/45
f 90/62/45 92/64/46 142/128/46
f 143/126/47 142/125/46 92/58/46
f 92/58/46 94/60/47 143/126/47
f 144/124/48 143/123/47 94/54/47
f 94/54/47 96/56/48 144/124/48
f 97/97/1 144/122/48 96/52/48
f 96/52/48 2/2/1 97/97/1

