# ProBuilder 4.2.3
# https://unity3d.com/unity/features/worldbuilding/probuilder
# 9/8/2021 5:28:55 PM

mtllib ./Pipe.mtl
o Pipe

g Pipe
v 0.0384295 0 0.3901806
v 0 0 0
v 0.0384295 0.05 0.3901806
v 0 0.05 0
v 0.5 0 0
v 0.5288222 0 0.2926355
v 0.5 0.05 0
v 0.5288222 0.05 0.2926355
v 0.152241 0 0.7653669
v 0.152241 0.05 0.7653669
v 0.6141808 0 0.5740252
v 0.6141808 0.05 0.5740252
v 0.3370608 0 1.11114
v 0.3370608 0.05 1.11114
v 0.7527956 0 0.8333554
v 0.7527956 0.05 0.8333554
v 0.5857865 0 1.414214
v 0.5857865 0.05 1.414214
v 0.9393399 0 1.06066
v 0.9393399 0.05 1.06066
v 0.8888595 0 1.662939
v 0.8888595 0.05 1.662939
v 1.166645 0 1.247204
v 1.166645 0.05 1.247204
v 1.234633 0 1.847759
v 1.234633 0.05 1.847759
v 1.425975 0 1.385819
v 1.425975 0.05 1.385819
v 1.609819 0 1.961571
v 1.609819 0.05 1.961571
v 1.707364 0 1.471178
v 1.707364 0.05 1.471178
v 2 0 2
v 2 0.05 2
v 2 0 1.5
v 2 0.05 1.5
v 2.390181 0 1.961571
v 2.390181 0.05 1.961571
v 2.292635 0 1.471178
v 2.292635 0.05 1.471178
v 2.765367 0 1.847759
v 2.765367 0.05 1.847759
v 2.574025 0 1.385819
v 2.574025 0.05 1.385819
v 3.11114 0 1.662939
v 3.11114 0.05 1.662939
v 2.833355 0 1.247205
v 2.833355 0.05 1.247205
v 3.414214 0 1.414214
v 3.414214 0.05 1.414214
v 3.06066 0 1.06066
v 3.06066 0.05 1.06066
v 3.662939 0 1.11114
v 3.662939 0.05 1.11114
v 3.247205 0 0.8333553
v 3.247205 0.05 0.8333553
v 3.847759 0 0.765367
v 3.847759 0.05 0.765367
v 3.385819 0 0.5740252
v 3.385819 0.05 0.5740252
v 3.961571 0 0.3901806
v 3.961571 0.05 0.3901806
v 3.471178 0 0.2926355
v 3.471178 0.05 0.2926355
v 4 0 -1.748456E-07
v 4 0.05 -1.748456E-07
v 3.5 0 -1.311342E-07
v 3.5 0.05 -1.311342E-07
v 3.961571 0 -0.3901805
v 3.961571 0.05 -0.3901805
v 3.471178 0 -0.2926354
v 3.471178 0.05 -0.2926354
v 3.847759 0 -0.7653669
v 3.847759 0.05 -0.7653669
v 3.385819 0 -0.5740252
v 3.385819 0.05 -0.5740252
v 3.662939 0 -1.111141
v 3.662939 0.05 -1.111141
v 3.247204 0 -0.8333554
v 3.247204 0.05 -0.8333554
v 3.414214 0 -1.414213
v 3.414214 0.05 -1.414213
v 3.06066 0 -1.06066
v 3.06066 0.05 -1.06066
v 3.111141 0 -1.662939
v 3.111141 0.05 -1.662939
v 2.833356 0 -1.247204
v 2.833356 0.05 -1.247204
v 2.765367 0 -1.847759
v 2.765367 0.05 -1.847759
v 2.574025 0 -1.385819
v 2.574025 0.05 -1.385819
v 2.390181 0 -1.961571
v 2.390181 0.05 -1.961571
v 2.292635 0 -1.471178
v 2.292635 0.05 -1.471178
v 2 0 -2
v 2 0.05 -2
v 2 0 -1.5
v 2 0.05 -1.5
v 1.609819 0 -1.961571
v 1.609819 0.05 -1.961571
v 1.707364 0 -1.471178
v 1.707364 0.05 -1.471178
v 1.234633 0 -1.847759
v 1.234633 0.05 -1.847759
v 1.425975 0 -1.385819
v 1.425975 0.05 -1.385819
v 0.8888599 0 -1.662939
v 0.8888599 0.05 -1.662939
v 1.166645 0 -1.247205
v 1.166645 0.05 -1.247205
v 0.5857867 0 -1.414214
v 0.5857867 0.05 -1.414214
v 0.93934 0 -1.06066
v 0.93934 0.05 -1.06066
v 0.3370608 0 -1.111141
v 0.3370608 0.05 -1.111141
v 0.7527956 0 -0.8333554
v 0.7527956 0.05 -0.8333554
v 0.1522409 0 -0.7653669
v 0.1522409 0.05 -0.7653669
v 0.6141807 0 -0.5740252
v 0.6141807 0.05 -0.5740252
v 0.03842938 0 -0.3901805
v 0.03842938 0.05 -0.3901805
v 0.5288221 0 -0.2926354
v 0.5288221 0.05 -0.2926354
v 0.0384295 0.1 0.3901806
v 0 0.1 0
v 0.5 0.1 0
v 0.5288222 0.1 0.2926355
v 0.152241 0.1 0.7653669
v 0.6141808 0.1 0.5740252
v 0.3370608 0.1 1.11114
v 0.7527956 0.1 0.8333554
v 0.5857865 0.1 1.414214
v 0.9393399 0.1 1.06066
v 0.8888595 0.1 1.662939
v 1.166645 0.1 1.247204
v 1.234633 0.1 1.847759
v 1.425975 0.1 1.385819
v 1.609819 0.1 1.961571
v 1.707364 0.1 1.471178
v 2 0.1 2
v 2 0.1 1.5
v 2.390181 0.1 1.961571
v 2.292635 0.1 1.471178
v 2.765367 0.1 1.847759
v 2.574025 0.1 1.385819
v 3.11114 0.1 1.662939
v 2.833355 0.1 1.247205
v 3.414214 0.1 1.414214
v 3.06066 0.1 1.06066
v 3.662939 0.1 1.11114
v 3.247205 0.1 0.8333553
v 3.847759 0.1 0.765367
v 3.385819 0.1 0.5740252
v 3.961571 0.1 0.3901806
v 3.471178 0.1 0.2926355
v 4 0.1 -1.748456E-07
v 3.5 0.1 -1.311342E-07
v 3.961571 0.1 -0.3901805
v 3.471178 0.1 -0.2926354
v 3.847759 0.1 -0.7653669
v 3.385819 0.1 -0.5740252
v 3.662939 0.1 -1.111141
v 3.247204 0.1 -0.8333554
v 3.414214 0.1 -1.414213
v 3.06066 0.1 -1.06066
v 3.111141 0.1 -1.662939
v 2.833356 0.1 -1.247204
v 2.765367 0.1 -1.847759
v 2.574025 0.1 -1.385819
v 2.390181 0.1 -1.961571
v 2.292635 0.1 -1.471178
v 2 0.1 -2
v 2 0.1 -1.5
v 1.609819 0.1 -1.961571
v 1.707364 0.1 -1.471178
v 1.234633 0.1 -1.847759
v 1.425975 0.1 -1.385819
v 0.8888599 0.1 -1.662939
v 1.166645 0.1 -1.247205
v 0.5857867 0.1 -1.414214
v 0.93934 0.1 -1.06066
v 0.3370608 0.1 -1.111141
v 0.7527956 0.1 -0.8333554
v 0.1522409 0.1 -0.7653669
v 0.6141807 0.1 -0.5740252
v 0.03842938 0.1 -0.3901805
v 0.5288221 0.1 -0.2926354

vt 0.3920686 0
vt 0 0
vt 0.3920686 0.05
vt 0 0.05
vt -0.04900875 0
vt -0.3430602 0
vt -0.04900875 0.05
vt -0.3430602 0.05
vt 0.7766037 0
vt 0.3845351 0
vt 0.7766037 0.05
vt 0.3845351 0.05
vt -0.4335437 0
vt -0.7275951 0
vt -0.4335437 0.05
vt -0.7275951 0.05
vt 1.138828 0
vt 0.7467593 0
vt 1.138828 0.05
vt 0.7467593 0.05
vt -0.7957677 0
vt -1.089819 0
vt -0.7957677 0.05
vt -1.089819 0.05
vt 1.464821 0
vt 1.072752 0
vt 1.464821 0.05
vt 1.072752 0.05
vt -1.121761 0
vt -1.415812 0
vt -1.121761 0.05
vt -1.415812 0.05
vt 1.742055 0
vt 1.349987 0
vt 1.742055 0.05
vt 1.349987 0.05
vt -1.398995 0
vt -1.693047 0
vt -1.398995 0.05
vt -1.693047 0.05
vt 1.959877 0
vt 1.567808 0
vt 1.959877 0.05
vt 1.567808 0.05
vt -1.616817 0
vt -1.910868 0
vt -1.616817 0.05
vt -1.910868 0.05
vt 2.109915 0
vt 1.717847 0
vt 2.109915 0.05
vt 1.717847 0.05
vt -1.766855 0
vt -2.060906 0
vt -1.766855 0.05
vt -2.060906 0.05
vt 2.186404 0
vt 1.794335 0
vt 2.186404 0.05
vt 1.794335 0.05
vt -1.843344 0
vt -2.137396 0
vt -1.843344 0.05
vt -2.137396 0.05
vt -0.3920669 0
vt -0.3920669 0.05
vt 0.3430585 0
vt 0.04900735 0
vt 0.3430585 0.05
vt 0.04900735 0.05
vt -0.384537 0
vt -0.7766057 0
vt -0.384537 0.05
vt -0.7766057 0.05
vt 0.7275975 0
vt 0.4335459 0
vt 0.7275975 0.05
vt 0.4335459 0.05
vt -0.7467591 0
vt -1.138828 0
vt -0.7467591 0.05
vt -1.138828 0.05
vt 1.089819 0
vt 0.7957674 0
vt 1.089819 0.05
vt 0.7957674 0.05
vt -1.072752 0
vt -1.464821 0
vt -1.072752 0.05
vt -1.464821 0.05
vt 1.415811 0
vt 1.12176 0
vt 1.415811 0.05
vt 1.12176 0.05
vt -1.349987 0
vt -1.742055 0
vt -1.349987 0.05
vt -1.742055 0.05
vt 1.693048 0
vt 1.398996 0
vt 1.693048 0.05
vt 1.398996 0.05
vt -1.567807 0
vt -1.959876 0
vt -1.567807 0.05
vt -1.959876 0.05
vt 1.910868 0
vt 1.616817 0
vt 1.910868 0.05
vt 1.616817 0.05
vt -1.717847 0
vt -2.109915 0
vt -1.717847 0.05
vt -2.109915 0.05
vt 2.060907 0
vt 1.766856 0
vt 2.060907 0.05
vt 1.766856 0.05
vt -1.794335 0
vt -2.186404 0
vt -1.794335 0.05
vt -2.186404 0.05
vt 2.137395 0
vt 1.843343 0
vt 2.137395 0.05
vt 1.843343 0.05
vt 0.3920686 0.1
vt 0 0.1
vt -0.04900875 0.1
vt -0.3430602 0.1
vt 0.7766037 0.1
vt 0.3845351 0.1
vt -0.4335437 0.1
vt -0.7275951 0.1
vt 1.138828 0.1
vt 0.7467593 0.1
vt -0.7957677 0.1
vt -1.089819 0.1
vt 1.464821 0.1
vt 1.072752 0.1
vt -1.121761 0.1
vt -1.415812 0.1
vt 1.742055 0.1
vt 1.349987 0.1
vt -1.398995 0.1
vt -1.693047 0.1
vt 1.959877 0.1
vt 1.567808 0.1
vt -1.616817 0.1
vt -1.910868 0.1
vt 2.109915 0.1
vt 1.717847 0.1
vt -1.766855 0.1
vt -2.060906 0.1
vt 2.186404 0.1
vt 1.794335 0.1
vt -1.843344 0.1
vt -2.137396 0.1
vt -0.3920669 0.1
vt 0.3430585 0.1
vt 0.04900735 0.1
vt -0.384537 0.1
vt -0.7766057 0.1
vt 0.7275975 0.1
vt 0.4335459 0.1
vt -0.7467591 0.1
vt -1.138828 0.1
vt 1.089819 0.1
vt 0.7957674 0.1
vt -1.072752 0.1
vt -1.464821 0.1
vt 1.415811 0.1
vt 1.12176 0.1
vt -1.349987 0.1
vt -1.742055 0.1
vt 1.693048 0.1
vt 1.398996 0.1
vt -1.567807 0.1
vt -1.959876 0.1
vt 1.910868 0.1
vt 1.616817 0.1
vt -1.717847 0.1
vt -2.109915 0.1
vt 2.060907 0.1
vt 1.766856 0.1
vt -1.794335 0.1
vt -2.186404 0.1
vt 2.137395 0.1
vt 1.843343 0.1
vt 0.0384295 0.3901806
vt 0.5 0
vt 0.5288222 0.2926355
vt -0.0384295 0.3901806
vt -0.5288222 0.2926355
vt -0.5 0
vt 0.152241 0.7653669
vt 0.6141808 0.5740252
vt -0.152241 0.7653669
vt -0.6141808 0.5740252
vt 0.3370608 1.11114
vt 0.7527956 0.8333554
vt -0.3370608 1.11114
vt -0.7527956 0.8333554
vt 0.5857865 1.414214
vt 0.9393399 1.06066
vt -0.5857865 1.414214
vt -0.9393399 1.06066
vt 0.8888595 1.662939
vt 1.166645 1.247204
vt -0.8888595 1.662939
vt -1.166645 1.247204
vt 1.234633 1.847759
vt 1.425975 1.385819
vt -1.234633 1.847759
vt -1.425975 1.385819
vt 1.609819 1.961571
vt 1.707364 1.471178
vt -1.609819 1.961571
vt -1.707364 1.471178
vt 2 2
vt 2 1.5
vt -2 2
vt -2 1.5
vt 2.390181 1.961571
vt 2.292635 1.471178
vt -2.390181 1.961571
vt -2.292635 1.471178
vt 2.765367 1.847759
vt 2.574025 1.385819
vt -2.765367 1.847759
vt -2.574025 1.385819
vt 3.11114 1.662939
vt 2.833355 1.247205
vt -3.11114 1.662939
vt -2.833355 1.247205
vt 3.414214 1.414214
vt 3.06066 1.06066
vt -3.414214 1.414214
vt -3.06066 1.06066
vt 3.662939 1.11114
vt 3.247205 0.8333553
vt -3.662939 1.11114
vt -3.247205 0.8333553
vt 3.847759 0.765367
vt 3.385819 0.5740252
vt -3.847759 0.765367
vt -3.385819 0.5740252
vt 3.961571 0.3901806
vt 3.471178 0.2926355
vt -3.961571 0.3901806
vt -3.471178 0.2926355
vt 4 -1.748456E-07
vt 3.5 -1.311342E-07
vt -4 -1.748456E-07
vt -3.5 -1.311342E-07
vt 3.961571 -0.3901805
vt 3.471178 -0.2926354
vt -3.961571 -0.3901805
vt -3.471178 -0.2926354
vt 3.847759 -0.7653669
vt 3.385819 -0.5740252
vt -3.847759 -0.7653669
vt -3.385819 -0.5740252
vt 3.662939 -1.111141
vt 3.247204 -0.8333554
vt -3.662939 -1.111141
vt -3.247204 -0.8333554
vt 3.414214 -1.414213
vt 3.06066 -1.06066
vt -3.414214 -1.414213
vt -3.06066 -1.06066
vt 3.111141 -1.662939
vt 2.833356 -1.247204
vt -3.111141 -1.662939
vt -2.833356 -1.247204
vt 2.765367 -1.847759
vt 2.574025 -1.385819
vt -2.765367 -1.847759
vt -2.574025 -1.385819
vt 2.390181 -1.961571
vt 2.292635 -1.471178
vt -2.390181 -1.961571
vt -2.292635 -1.471178
vt 2 -2
vt 2 -1.5
vt -2 -2
vt -2 -1.5
vt 1.609819 -1.961571
vt 1.707364 -1.471178
vt -1.609819 -1.961571
vt -1.707364 -1.471178
vt 1.234633 -1.847759
vt 1.425975 -1.385819
vt -1.234633 -1.847759
vt -1.425975 -1.385819
vt 0.8888599 -1.662939
vt 1.166645 -1.247205
vt -0.8888599 -1.662939
vt -1.166645 -1.247205
vt 0.5857867 -1.414214
vt 0.93934 -1.06066
vt -0.5857867 -1.414214
vt -0.93934 -1.06066
vt 0.3370608 -1.111141
vt 0.7527956 -0.8333554
vt -0.3370608 -1.111141
vt -0.7527956 -0.8333554
vt 0.1522409 -0.7653669
vt 0.6141807 -0.5740252
vt -0.1522409 -0.7653669
vt -0.6141807 -0.5740252
vt 0.03842938 -0.3901805
vt 0.5288221 -0.2926354
vt -0.03842938 -0.3901805
vt -0.5288221 -0.2926354

vn -0.9951847 0 0.09801729
vn 0.9951847 0 -0.09801749
vn -0.9569404 0 0.2902846
vn 0.9569404 0 -0.2902847
vn -0.8819213 0 0.4713967
vn 0.8819214 0 -0.4713964
vn -0.7730104 0 0.6343933
vn 0.7730103 0 -0.6343935
vn -0.6343933 0 0.7730104
vn 0.6343936 0 -0.7730102
vn -0.4713966 0 0.8819214
vn 0.4713964 0 -0.8819215
vn -0.2902848 0 0.9569403
vn 0.2902847 0 -0.9569403
vn -0.09801728 0 0.9951847
vn 0.09801747 0 -0.9951847
vn 0.09801731 0 0.9951847
vn -0.09801751 0 -0.9951847
vn 0.2902844 0 0.9569404
vn -0.2902842 0 -0.9569405
vn 0.4713969 0 0.8819212
vn -0.4713964 0 -0.8819215
vn 0.6343931 0 0.7730107
vn -0.6343938 0 -0.77301
vn 0.7730106 0 0.6343932
vn -0.7730102 0 -0.6343936
vn 0.8819213 0 0.4713967
vn -0.8819215 0 -0.4713963
vn 0.9569402 0 0.2902851
vn -0.9569402 0 -0.2902853
vn 0.9951848 0 0.09801665
vn -0.9951848 0 -0.09801665
vn 0 -1 0
vn 0 1 0

usemtl Light-Orange
f 3/3/1 4/4/1 2/2/1 1/1/1
f 7/7/2 8/8/2 6/6/2 5/5/2
f 10/11/3 3/12/3 1/10/3 9/9/3
f 8/15/4 12/16/4 11/14/4 6/13/4
f 14/19/5 10/20/5 9/18/5 13/17/5
f 12/23/6 16/24/6 15/22/6 11/21/6
f 18/27/7 14/28/7 13/26/7 17/25/7
f 16/31/8 20/32/8 19/30/8 15/29/8
f 22/35/9 18/36/9 17/34/9 21/33/9
f 20/39/10 24/40/10 23/38/10 19/37/10
f 26/43/11 22/44/11 21/42/11 25/41/11
f 24/47/12 28/48/12 27/46/12 23/45/12
f 30/51/13 26/52/13 25/50/13 29/49/13
f 28/55/14 32/56/14 31/54/14 27/53/14
f 34/59/15 30/60/15 29/58/15 33/57/15
f 32/63/16 36/64/16 35/62/16 31/61/16
f 38/59/17 34/60/17 33/58/17 37/57/17
f 36/63/18 40/64/18 39/62/18 35/61/18
f 42/51/19 38/52/19 37/50/19 41/49/19
f 40/55/20 44/56/20 43/54/20 39/53/20
f 46/43/21 42/44/21 41/42/21 45/41/21
f 44/47/22 48/48/22 47/46/22 43/45/22
f 50/35/23 46/36/23 45/34/23 49/33/23
f 48/39/24 52/40/24 51/38/24 47/37/24
f 54/27/25 50/28/25 49/26/25 53/25/25
f 52/31/26 56/32/26 55/30/26 51/29/26
f 58/19/27 54/20/27 53/18/27 57/17/27
f 56/23/28 60/24/28 59/22/28 55/21/28
f 62/11/29 58/12/29 57/10/29 61/9/29
f 60/15/30 64/16/30 63/14/30 59/13/30
f 66/3/31 62/4/31 61/2/31 65/1/31
f 64/7/32 68/8/32 67/6/32 63/5/32
f 70/4/2 66/66/2 65/65/2 69/2/2
f 68/69/1 72/70/1 71/68/1 67/67/1
f 74/73/4 70/74/4 69/72/4 73/71/4
f 72/77/3 76/78/3 75/76/3 71/75/3
f 78/81/6 74/82/6 73/80/6 77/79/6
f 76/85/5 80/86/5 79/84/5 75/83/5
f 82/89/8 78/90/8 77/88/8 81/87/8
f 80/93/7 84/94/7 83/92/7 79/91/7
f 86/97/10 82/98/10 81/96/10 85/95/10
f 84/101/9 88/102/9 87/100/9 83/99/9
f 90/105/12 86/106/12 85/104/12 89/103/12
f 88/109/11 92/110/11 91/108/11 87/107/11
f 94/113/14 90/114/14 89/112/14 93/111/14
f 92/117/13 96/118/13 95/116/13 91/115/13
f 98/121/16 94/122/16 93/120/16 97/119/16
f 96/125/15 100/126/15 99/124/15 95/123/15
f 102/121/18 98/122/18 97/120/18 101/119/18
f 100/125/17 104/126/17 103/124/17 99/123/17
f 106/113/20 102/114/20 101/112/20 105/111/20
f 104/117/19 108/118/19 107/116/19 103/115/19
f 110/105/22 106/106/22 105/104/22 109/103/22
f 108/109/21 112/110/21 111/108/21 107/107/21
f 114/97/24 110/98/24 109/96/24 113/95/24
f 112/101/23 116/102/23 115/100/23 111/99/23
f 118/89/26 114/90/26 113/88/26 117/87/26
f 116/93/25 120/94/25 119/92/25 115/91/25
f 122/81/28 118/82/28 117/80/28 121/79/28
f 120/85/27 124/86/27 123/84/27 119/83/27
f 126/73/30 122/74/30 121/72/30 125/71/30
f 124/77/29 128/78/29 127/76/29 123/75/29
f 4/4/32 126/66/32 125/65/32 2/2/32
f 128/69/31 7/70/31 5/68/31 127/67/31
f 129/127/1 130/128/1 4/4/1 3/3/1
f 131/129/2 132/130/2 8/8/2 7/7/2
f 133/131/3 129/132/3 3/12/3 10/11/3
f 132/133/4 134/134/4 12/16/4 8/15/4
f 135/135/5 133/136/5 10/20/5 14/19/5
f 134/137/6 136/138/6 16/24/6 12/23/6
f 137/139/7 135/140/7 14/28/7 18/27/7
f 136/141/8 138/142/8 20/32/8 16/31/8
f 139/143/9 137/144/9 18/36/9 22/35/9
f 138/145/10 140/146/10 24/40/10 20/39/10
f 141/147/11 139/148/11 22/44/11 26/43/11
f 140/149/12 142/150/12 28/48/12 24/47/12
f 143/151/13 141/152/13 26/52/13 30/51/13
f 142/153/14 144/154/14 32/56/14 28/55/14
f 145/155/15 143/156/15 30/60/15 34/59/15
f 144/157/16 146/158/16 36/64/16 32/63/16
f 147/155/17 145/156/17 34/60/17 38/59/17
f 146/157/18 148/158/18 40/64/18 36/63/18
f 149/151/19 147/152/19 38/52/19 42/51/19
f 148/153/20 150/154/20 44/56/20 40/55/20
f 151/147/21 149/148/21 42/44/21 46/43/21
f 150/149/22 152/150/22 48/48/22 44/47/22
f 153/143/23 151/144/23 46/36/23 50/35/23
f 152/145/24 154/146/24 52/40/24 48/39/24
f 155/139/25 153/140/25 50/28/25 54/27/25
f 154/141/26 156/142/26 56/32/26 52/31/26
f 157/135/27 155/136/27 54/20/27 58/19/27
f 156/137/28 158/138/28 60/24/28 56/23/28
f 159/131/29 157/132/29 58/12/29 62/11/29
f 158/133/30 160/134/30 64/16/30 60/15/30
f 161/127/31 159/128/31 62/4/31 66/3/31
f 160/129/32 162/130/32 68/8/32 64/7/32
f 163/128/2 161/159/2 66/66/2 70/4/2
f 162/160/1 164/161/1 72/70/1 68/69/1
f 165/162/4 163/163/4 70/74/4 74/73/4
f 164/164/3 166/165/3 76/78/3 72/77/3
f 167/166/6 165/167/6 74/82/6 78/81/6
f 166/168/5 168/169/5 80/86/5 76/85/5
f 169/170/8 167/171/8 78/90/8 82/89/8
f 168/172/7 170/173/7 84/94/7 80/93/7
f 171/174/10 169/175/10 82/98/10 86/97/10
f 170/176/9 172/177/9 88/102/9 84/101/9
f 173/178/12 171/179/12 86/106/12 90/105/12
f 172/180/11 174/181/11 92/110/11 88/109/11
f 175/182/14 173/183/14 90/114/14 94/113/14
f 174/184/13 176/185/13 96/118/13 92/117/13
f 177/186/16 175/187/16 94/122/16 98/121/16
f 176/188/15 178/189/15 100/126/15 96/125/15
f 179/186/18 177/187/18 98/122/18 102/121/18
f 178/188/17 180/189/17 104/126/17 100/125/17
f 181/182/20 179/183/20 102/114/20 106/113/20
f 180/184/19 182/185/19 108/118/19 104/117/19
f 183/178/22 181/179/22 106/106/22 110/105/22
f 182/180/21 184/181/21 112/110/21 108/109/21
f 185/174/24 183/175/24 110/98/24 114/97/24
f 184/176/23 186/177/23 116/102/23 112/101/23
f 187/170/26 185/171/26 114/90/26 118/89/26
f 186/172/25 188/173/25 120/94/25 116/93/25
f 189/166/28 187/167/28 118/82/28 122/81/28
f 188/168/27 190/169/27 124/86/27 120/85/27
f 191/162/30 189/163/30 122/74/30 126/73/30
f 190/164/29 192/165/29 128/78/29 124/77/29
f 130/128/32 191/159/32 126/66/32 4/4/32
f 192/160/31 131/161/31 7/70/31 128/69/31
f 5/191/33 6/192/33 1/190/33 2/2/33
f 132/194/34 131/195/34 130/2/34 129/193/34
f 6/192/33 11/197/33 9/196/33 1/190/33
f 134/199/34 132/194/34 129/193/34 133/198/34
f 11/197/33 15/201/33 13/200/33 9/196/33
f 136/203/34 134/199/34 133/198/34 135/202/34
f 15/201/33 19/205/33 17/204/33 13/200/33
f 138/207/34 136/203/34 135/202/34 137/206/34
f 19/205/33 23/209/33 21/208/33 17/204/33
f 140/211/34 138/207/34 137/206/34 139/210/34
f 23/209/33 27/213/33 25/212/33 21/208/33
f 142/215/34 140/211/34 139/210/34 141/214/34
f 27/213/33 31/217/33 29/216/33 25/212/33
f 144/219/34 142/215/34 141/214/34 143/218/34
f 31/217/33 35/221/33 33/220/33 29/216/33
f 146/223/34 144/219/34 143/218/34 145/222/34
f 35/221/33 39/225/33 37/224/33 33/220/33
f 148/227/34 146/223/34 145/222/34 147/226/34
f 39/225/33 43/229/33 41/228/33 37/224/33
f 150/231/34 148/227/34 147/226/34 149/230/34
f 43/229/33 47/233/33 45/232/33 41/228/33
f 152/235/34 150/231/34 149/230/34 151/234/34
f 47/233/33 51/237/33 49/236/33 45/232/33
f 154/239/34 152/235/34 151/234/34 153/238/34
f 51/237/33 55/241/33 53/240/33 49/236/33
f 156/243/34 154/239/34 153/238/34 155/242/34
f 55/241/33 59/245/33 57/244/33 53/240/33
f 158/247/34 156/243/34 155/242/34 157/246/34
f 59/245/33 63/249/33 61/248/33 57/244/33
f 160/251/34 158/247/34 157/246/34 159/250/34
f 63/249/33 67/253/33 65/252/33 61/248/33
f 162/255/34 160/251/34 159/250/34 161/254/34
f 67/253/33 71/257/33 69/256/33 65/252/33
f 164/259/34 162/255/34 161/254/34 163/258/34
f 71/257/33 75/261/33 73/260/33 69/256/33
f 166/263/34 164/259/34 163/258/34 165/262/34
f 75/261/33 79/265/33 77/264/33 73/260/33
f 168/267/34 166/263/34 165/262/34 167/266/34
f 79/265/33 83/269/33 81/268/33 77/264/33
f 170/271/34 168/267/34 167/266/34 169/270/34
f 83/269/33 87/273/33 85/272/33 81/268/33
f 172/275/34 170/271/34 169/270/34 171/274/34
f 87/273/33 91/277/33 89/276/33 85/272/33
f 174/279/34 172/275/34 171/274/34 173/278/34
f 91/277/33 95/281/33 93/280/33 89/276/33
f 176/283/34 174/279/34 173/278/34 175/282/34
f 95/281/33 99/285/33 97/284/33 93/280/33
f 178/287/34 176/283/34 175/282/34 177/286/34
f 99/285/33 103/289/33 101/288/33 97/284/33
f 180/291/34 178/287/34 177/286/34 179/290/34
f 103/289/33 107/293/33 105/292/33 101/288/33
f 182/295/34 180/291/34 179/290/34 181/294/34
f 107/293/33 111/297/33 109/296/33 105/292/33
f 184/299/34 182/295/34 181/294/34 183/298/34
f 111/297/33 115/301/33 113/300/33 109/296/33
f 186/303/34 184/299/34 183/298/34 185/302/34
f 115/301/33 119/305/33 117/304/33 113/300/33
f 188/307/34 186/303/34 185/302/34 187/306/34
f 119/305/33 123/309/33 121/308/33 117/304/33
f 190/311/34 188/307/34 187/306/34 189/310/34
f 123/309/33 127/313/33 125/312/33 121/308/33
f 192/315/34 190/311/34 189/310/34 191/314/34
f 127/313/33 5/191/33 2/2/33 125/312/33
f 131/195/34 192/315/34 191/314/34 130/2/34

